<mxfile host="app.diagrams.net" agent="Mozilla/5.0 (Windows NT 10.0; Win64; x64) AppleWebKit/537.36 (KHTML, like Gecko) Chrome/138.0.0.0 Safari/537.36" version="28.0.7">
  <diagram name="Page-1" id="e7e014a7-5840-1c2e-5031-d8a46d1fe8dd">
    <mxGraphModel dx="1042" dy="578" grid="1" gridSize="10" guides="1" tooltips="1" connect="1" arrows="1" fold="1" page="1" pageScale="1" pageWidth="1169" pageHeight="826" background="none" math="0" shadow="0">
      <root>
        <mxCell id="0" />
        <mxCell id="1" parent="0" />
        <mxCell id="2" value="Carrito y Pedidos Usuario Redux Store" style="swimlane;whiteSpace=wrap" parent="1" vertex="1">
          <mxGeometry x="164.5" y="128" width="280" height="570" as="geometry" />
        </mxCell>
        <mxCell id="5" value="" style="ellipse;shape=startState;fillColor=#000000;strokeColor=#ff0000;" parent="2" vertex="1">
          <mxGeometry x="100" y="40" width="30" height="30" as="geometry" />
        </mxCell>
        <mxCell id="6" value="" style="edgeStyle=elbowEdgeStyle;elbow=horizontal;verticalAlign=bottom;endArrow=open;endSize=8;strokeColor=#FF0000;endFill=1;rounded=0" parent="2" source="5" target="7" edge="1">
          <mxGeometry x="100" y="40" as="geometry">
            <mxPoint x="115" y="110" as="targetPoint" />
          </mxGeometry>
        </mxCell>
        <mxCell id="7" value="Estado: Nuevo" style="" parent="2" vertex="1">
          <mxGeometry x="65" y="98" width="110" height="50" as="geometry" />
        </mxCell>
        <mxCell id="8" value="Confirmo Carrito" style="" parent="2" vertex="1">
          <mxGeometry x="65" y="183" width="110" height="50" as="geometry" />
        </mxCell>
        <mxCell id="9" value="" style="endArrow=open;strokeColor=#FF0000;endFill=1;rounded=0" parent="2" source="7" target="8" edge="1">
          <mxGeometry relative="1" as="geometry" />
        </mxCell>
        <mxCell id="10" value="Estado: En Preparación" style="" parent="2" vertex="1">
          <mxGeometry x="50" y="267" width="140" height="50" as="geometry" />
        </mxCell>
        <mxCell id="11" value="" style="endArrow=open;strokeColor=#FF0000;endFill=1;rounded=0" parent="2" source="8" target="10" edge="1">
          <mxGeometry relative="1" as="geometry" />
        </mxCell>
        <mxCell id="12" value="" style="edgeStyle=elbowEdgeStyle;elbow=horizontal;strokeColor=#FF0000;endArrow=open;endFill=1;rounded=0" parent="2" source="10" target="7" edge="1">
          <mxGeometry width="100" height="100" relative="1" as="geometry">
            <mxPoint x="160" y="290" as="sourcePoint" />
            <mxPoint x="260" y="190" as="targetPoint" />
            <Array as="points">
              <mxPoint x="30" y="250" />
            </Array>
          </mxGeometry>
        </mxCell>
        <mxCell id="7wNMTAFy6irC7HOQBYHS-80" value="" style="edgeStyle=elbowEdgeStyle;elbow=horizontal;verticalAlign=bottom;endArrow=open;endSize=8;strokeColor=#FF0000;endFill=1;rounded=0;exitX=0.5;exitY=1;exitDx=0;exitDy=0;entryX=0.5;entryY=0;entryDx=0;entryDy=0;" edge="1" parent="2" source="10" target="7wNMTAFy6irC7HOQBYHS-81">
          <mxGeometry x="-509" y="-216" as="geometry">
            <mxPoint x="119.5" y="352" as="targetPoint" />
            <mxPoint x="119.5" y="342" as="sourcePoint" />
          </mxGeometry>
        </mxCell>
        <mxCell id="7wNMTAFy6irC7HOQBYHS-81" value="Agrego Carrito a&#xa;Pedidos en Store" style="" vertex="1" parent="2">
          <mxGeometry x="65" y="342" width="110" height="50" as="geometry" />
        </mxCell>
        <mxCell id="7wNMTAFy6irC7HOQBYHS-84" value="Actualizo Pedido&#xa;Redux Store" style="" vertex="1" parent="2">
          <mxGeometry x="65" y="422" width="110" height="50" as="geometry" />
        </mxCell>
        <mxCell id="7wNMTAFy6irC7HOQBYHS-86" value="" style="edgeStyle=elbowEdgeStyle;elbow=horizontal;verticalAlign=bottom;endArrow=open;endSize=8;strokeColor=#FF0000;endFill=1;rounded=0;exitX=0.5;exitY=1;exitDx=0;exitDy=0;entryX=0.5;entryY=0;entryDx=0;entryDy=0;" edge="1" parent="2" source="7wNMTAFy6irC7HOQBYHS-81" target="7wNMTAFy6irC7HOQBYHS-84">
          <mxGeometry x="-673.5" y="-344" as="geometry">
            <mxPoint x="115.5" y="347" as="targetPoint" />
            <mxPoint x="115.5" y="322" as="sourcePoint" />
          </mxGeometry>
        </mxCell>
        <mxCell id="7wNMTAFy6irC7HOQBYHS-103" value="" style="ellipse;shape=endState;fillColor=#000000;strokeColor=#ff0000" vertex="1" parent="2">
          <mxGeometry x="105" y="520" width="30" height="30" as="geometry" />
        </mxCell>
        <mxCell id="7wNMTAFy6irC7HOQBYHS-104" value="" style="endArrow=open;strokeColor=#FF0000;endFill=1;rounded=0;exitX=0.5;exitY=1;exitDx=0;exitDy=0;entryX=0.5;entryY=0;entryDx=0;entryDy=0;" edge="1" parent="2" target="7wNMTAFy6irC7HOQBYHS-103" source="7wNMTAFy6irC7HOQBYHS-84">
          <mxGeometry relative="1" as="geometry">
            <mxPoint x="95.5" y="472" as="sourcePoint" />
            <mxPoint x="65.5" y="502" as="targetPoint" />
            <Array as="points" />
          </mxGeometry>
        </mxCell>
        <mxCell id="3" value="Pedidos Firebase" style="swimlane;whiteSpace=wrap" parent="1" vertex="1">
          <mxGeometry x="444.5" y="128" width="280" height="570" as="geometry" />
        </mxCell>
        <mxCell id="18" value="Agrego Pedido&#xa;Estado: En Preparación" style="" parent="3" vertex="1">
          <mxGeometry x="25.5" y="254" width="130" height="50" as="geometry" />
        </mxCell>
        <mxCell id="30" value="Actualizo Pedido" style="" parent="3" vertex="1">
          <mxGeometry x="160" y="370" width="95.5" height="50" as="geometry" />
        </mxCell>
        <mxCell id="31" value="Soy el Pedido Agregado" style="shape=note;whiteSpace=wrap;size=17" parent="3" vertex="1">
          <mxGeometry x="7.5" y="361" width="100" height="50" as="geometry" />
        </mxCell>
        <mxCell id="32" value="" style="endArrow=none;strokeColor=#FF0000;endFill=0;rounded=0;dashed=1;exitX=0.25;exitY=1;exitDx=0;exitDy=0;" parent="3" source="18" target="31" edge="1">
          <mxGeometry relative="1" as="geometry" />
        </mxCell>
        <mxCell id="7wNMTAFy6irC7HOQBYHS-43" value="" style="ellipse;shape=startState;fillColor=#000000;strokeColor=#ff0000;" vertex="1" parent="3">
          <mxGeometry x="125.5" y="42" width="30" height="30" as="geometry" />
        </mxCell>
        <mxCell id="7wNMTAFy6irC7HOQBYHS-46" value="onSnapshot:&#xa;Pedido Usuario" style="dashed=1;" vertex="1" parent="3">
          <mxGeometry x="5.5" y="96" width="110" height="50" as="geometry" />
        </mxCell>
        <mxCell id="7wNMTAFy6irC7HOQBYHS-48" value="" style="edgeStyle=elbowEdgeStyle;elbow=horizontal;verticalAlign=bottom;endArrow=open;endSize=8;strokeColor=#FF0000;endFill=1;rounded=0;exitX=0.5;exitY=1;exitDx=0;exitDy=0;entryX=0.5;entryY=0;entryDx=0;entryDy=0;" edge="1" parent="3" source="7wNMTAFy6irC7HOQBYHS-43" target="7wNMTAFy6irC7HOQBYHS-46">
          <mxGeometry x="-344.5" y="-88" as="geometry">
            <mxPoint x="55.5" y="72" as="targetPoint" />
            <mxPoint x="45.5" y="92" as="sourcePoint" />
            <Array as="points">
              <mxPoint x="61" y="82" />
            </Array>
          </mxGeometry>
        </mxCell>
        <mxCell id="7wNMTAFy6irC7HOQBYHS-50" value="" style="edgeStyle=elbowEdgeStyle;elbow=horizontal;verticalAlign=bottom;endArrow=open;endSize=8;strokeColor=#FF0000;endFill=1;rounded=0;entryX=0.5;entryY=0;entryDx=0;entryDy=0;exitX=0.5;exitY=1;exitDx=0;exitDy=0;" edge="1" parent="3" source="7wNMTAFy6irC7HOQBYHS-43" target="7wNMTAFy6irC7HOQBYHS-51">
          <mxGeometry x="-789" y="-216" as="geometry">
            <mxPoint x="240.5" y="82" as="targetPoint" />
            <mxPoint x="155.5" y="72" as="sourcePoint" />
            <Array as="points">
              <mxPoint x="211" y="82" />
            </Array>
          </mxGeometry>
        </mxCell>
        <mxCell id="7wNMTAFy6irC7HOQBYHS-51" value="onSnapshot:&#xa;Pedidos Admin" style="dashed=1;" vertex="1" parent="3">
          <mxGeometry x="155.5" y="96" width="110" height="50" as="geometry" />
        </mxCell>
        <mxCell id="7wNMTAFy6irC7HOQBYHS-52" value="llama callback  para act. pedido del usuario" style="shape=note;whiteSpace=wrap;size=17" vertex="1" parent="3">
          <mxGeometry x="10.5" y="182" width="100" height="50" as="geometry" />
        </mxCell>
        <mxCell id="7wNMTAFy6irC7HOQBYHS-56" value="" style="edgeStyle=elbowEdgeStyle;elbow=horizontal;verticalAlign=bottom;endArrow=open;endSize=8;strokeColor=#FF0000;endFill=1;rounded=0;exitX=0.5;exitY=1;exitDx=0;exitDy=0;entryX=0.5;entryY=0;entryDx=0;entryDy=0;entryPerimeter=0;" edge="1" parent="3" source="7wNMTAFy6irC7HOQBYHS-46" target="7wNMTAFy6irC7HOQBYHS-52">
          <mxGeometry x="-344.5" y="-88" as="geometry">
            <mxPoint x="56.5" y="180" as="targetPoint" />
            <mxPoint x="55.5" y="152" as="sourcePoint" />
          </mxGeometry>
        </mxCell>
        <mxCell id="7wNMTAFy6irC7HOQBYHS-57" value="llama callback  para act. pedidos del Admin" style="shape=note;whiteSpace=wrap;size=17" vertex="1" parent="3">
          <mxGeometry x="155.5" y="183" width="100" height="50" as="geometry" />
        </mxCell>
        <mxCell id="7wNMTAFy6irC7HOQBYHS-59" value="" style="edgeStyle=elbowEdgeStyle;elbow=horizontal;verticalAlign=bottom;endArrow=open;endSize=8;strokeColor=#FF0000;endFill=1;rounded=0;exitX=0.5;exitY=1;exitDx=0;exitDy=0;" edge="1" parent="3" source="7wNMTAFy6irC7HOQBYHS-51">
          <mxGeometry x="-789" y="-216" as="geometry">
            <mxPoint x="210.5" y="182" as="targetPoint" />
            <mxPoint x="55.5" y="152" as="sourcePoint" />
          </mxGeometry>
        </mxCell>
        <mxCell id="7wNMTAFy6irC7HOQBYHS-79" value="" style="endArrow=open;strokeColor=#FF0000;endFill=1;rounded=0;exitX=0;exitY=0.5;exitDx=0;exitDy=0;entryX=0;entryY=0;entryDx=100;entryDy=33.5;entryPerimeter=0;" edge="1" parent="3" source="30" target="31">
          <mxGeometry relative="1" as="geometry">
            <mxPoint x="155.5" y="374" as="sourcePoint" />
            <mxPoint x="115.5" y="374" as="targetPoint" />
          </mxGeometry>
        </mxCell>
        <mxCell id="7wNMTAFy6irC7HOQBYHS-91" value="Borro Pedido" style="" vertex="1" parent="3">
          <mxGeometry x="33.5" y="442" width="95.5" height="50" as="geometry" />
        </mxCell>
        <mxCell id="7wNMTAFy6irC7HOQBYHS-93" value="" style="endArrow=none;strokeColor=#FF0000;endFill=0;rounded=0;dashed=1;exitX=0.5;exitY=1;exitDx=0;exitDy=0;entryX=0.25;entryY=0;entryDx=0;entryDy=0;exitPerimeter=0;startArrow=classic;startFill=1;" edge="1" parent="3" source="31" target="7wNMTAFy6irC7HOQBYHS-91">
          <mxGeometry relative="1" as="geometry">
            <mxPoint x="55.5" y="332" as="sourcePoint" />
            <mxPoint x="55.5" y="389" as="targetPoint" />
          </mxGeometry>
        </mxCell>
        <mxCell id="7wNMTAFy6irC7HOQBYHS-94" value="" style="ellipse;shape=endState;fillColor=#000000;strokeColor=#ff0000" vertex="1" parent="3">
          <mxGeometry x="130" y="522" width="30" height="30" as="geometry" />
        </mxCell>
        <mxCell id="7wNMTAFy6irC7HOQBYHS-96" value="" style="endArrow=open;strokeColor=#FF0000;endFill=1;rounded=0;exitX=0.5;exitY=1;exitDx=0;exitDy=0;entryX=0;entryY=0;entryDx=0;entryDy=0;" edge="1" parent="3" source="7wNMTAFy6irC7HOQBYHS-91" target="7wNMTAFy6irC7HOQBYHS-94">
          <mxGeometry relative="1" as="geometry">
            <mxPoint x="-44.5" y="462" as="sourcePoint" />
            <mxPoint x="69.5" y="482" as="targetPoint" />
            <Array as="points" />
          </mxGeometry>
        </mxCell>
        <mxCell id="4" value="Pedidos Admin Redux Store" style="swimlane;whiteSpace=wrap" parent="1" vertex="1">
          <mxGeometry x="724.5" y="128" width="280" height="570" as="geometry">
            <mxRectangle x="724.5" y="128" width="190" height="30" as="alternateBounds" />
          </mxGeometry>
        </mxCell>
        <mxCell id="33" value="Agrego pedido a&#xa;Redux Store" style="" parent="4" vertex="1">
          <mxGeometry x="106" y="252" width="110" height="50" as="geometry" />
        </mxCell>
        <mxCell id="39" value="" style="endArrow=open;strokeColor=#FF0000;endFill=1;rounded=0;entryX=0.5;entryY=0;entryDx=0;entryDy=0;" parent="4" source="33" target="7wNMTAFy6irC7HOQBYHS-75" edge="1">
          <mxGeometry relative="1" as="geometry">
            <mxPoint x="161" y="347" as="targetPoint" />
          </mxGeometry>
        </mxCell>
        <mxCell id="7wNMTAFy6irC7HOQBYHS-60" value="" style="edgeStyle=elbowEdgeStyle;elbow=horizontal;verticalAlign=bottom;endArrow=open;endSize=8;strokeColor=#FF0000;endFill=1;rounded=0" edge="1" parent="4" target="7wNMTAFy6irC7HOQBYHS-61">
          <mxGeometry x="-624.5" y="-88" as="geometry">
            <mxPoint x="156" y="112" as="targetPoint" />
            <mxPoint x="156" y="72" as="sourcePoint" />
          </mxGeometry>
        </mxCell>
        <mxCell id="7wNMTAFy6irC7HOQBYHS-61" value="Cargo Pedidos:&#xa;API" style="" vertex="1" parent="4">
          <mxGeometry x="106" y="100" width="110" height="50" as="geometry" />
        </mxCell>
        <mxCell id="7wNMTAFy6irC7HOQBYHS-67" value="" style="ellipse;shape=startState;fillColor=#000000;strokeColor=#ff0000;" vertex="1" parent="4">
          <mxGeometry x="140.5" y="41" width="30" height="30" as="geometry" />
        </mxCell>
        <mxCell id="7wNMTAFy6irC7HOQBYHS-74" value="" style="ellipse;shape=endState;fillColor=#000000;strokeColor=#ff0000" vertex="1" parent="4">
          <mxGeometry x="146" y="535" width="30" height="30" as="geometry" />
        </mxCell>
        <mxCell id="7wNMTAFy6irC7HOQBYHS-75" value="Cambio Estado del&#xa;Pedido" style="" vertex="1" parent="4">
          <mxGeometry x="106" y="382" width="110" height="50" as="geometry" />
        </mxCell>
        <mxCell id="7wNMTAFy6irC7HOQBYHS-97" value="Actualizo Store" style="" vertex="1" parent="4">
          <mxGeometry x="106" y="459" width="110" height="50" as="geometry" />
        </mxCell>
        <mxCell id="7wNMTAFy6irC7HOQBYHS-100" value="" style="endArrow=open;strokeColor=#FF0000;endFill=1;rounded=0;entryX=0.5;entryY=0;entryDx=0;entryDy=0;exitX=0.5;exitY=1;exitDx=0;exitDy=0;" edge="1" parent="4" source="7wNMTAFy6irC7HOQBYHS-75" target="7wNMTAFy6irC7HOQBYHS-97">
          <mxGeometry relative="1" as="geometry">
            <mxPoint x="155.5" y="342" as="sourcePoint" />
            <mxPoint x="155.5" y="422" as="targetPoint" />
          </mxGeometry>
        </mxCell>
        <mxCell id="7wNMTAFy6irC7HOQBYHS-101" value="" style="endArrow=open;strokeColor=#FF0000;endFill=1;rounded=0;entryX=0.5;entryY=0;entryDx=0;entryDy=0;exitX=0.5;exitY=1;exitDx=0;exitDy=0;" edge="1" parent="4" source="7wNMTAFy6irC7HOQBYHS-97" target="7wNMTAFy6irC7HOQBYHS-74">
          <mxGeometry relative="1" as="geometry">
            <mxPoint x="155.5" y="442" as="sourcePoint" />
            <mxPoint x="155.5" y="469" as="targetPoint" />
          </mxGeometry>
        </mxCell>
        <mxCell id="20" value="" style="endArrow=open;strokeColor=#FF0000;endFill=1;rounded=0;exitX=1;exitY=0.25;exitDx=0;exitDy=0;entryX=0;entryY=0.5;entryDx=0;entryDy=0;" parent="1" source="10" target="18" edge="1">
          <mxGeometry relative="1" as="geometry">
            <mxPoint x="370" y="483" as="sourcePoint" />
            <mxPoint x="486" y="220" as="targetPoint" />
            <Array as="points" />
          </mxGeometry>
        </mxCell>
        <mxCell id="7wNMTAFy6irC7HOQBYHS-69" value="" style="endArrow=open;strokeColor=#FF0000;endFill=1;rounded=0;exitX=1;exitY=0.5;exitDx=0;exitDy=0;entryX=0.25;entryY=0;entryDx=0;entryDy=0;shadow=1;startArrow=open;startFill=0;" edge="1" parent="1" source="5" target="7wNMTAFy6irC7HOQBYHS-46">
          <mxGeometry relative="1" as="geometry">
            <mxPoint x="320" y="199" as="sourcePoint" />
            <mxPoint x="435" y="198" as="targetPoint" />
            <Array as="points">
              <mxPoint x="478" y="183" />
            </Array>
          </mxGeometry>
        </mxCell>
        <mxCell id="7wNMTAFy6irC7HOQBYHS-70" value="" style="endArrow=open;strokeColor=#FF0000;endFill=1;rounded=0;exitX=0;exitY=0.5;exitDx=0;exitDy=0;entryX=0.75;entryY=0;entryDx=0;entryDy=0;startArrow=open;startFill=0;" edge="1" parent="1" source="7wNMTAFy6irC7HOQBYHS-67" target="7wNMTAFy6irC7HOQBYHS-51">
          <mxGeometry relative="1" as="geometry">
            <mxPoint x="360" y="180" as="sourcePoint" />
            <mxPoint x="543" y="221" as="targetPoint" />
            <Array as="points">
              <mxPoint x="683" y="184" />
            </Array>
          </mxGeometry>
        </mxCell>
        <mxCell id="7wNMTAFy6irC7HOQBYHS-72" value="" style="endArrow=open;strokeColor=#FF0000;endFill=1;rounded=0;exitX=1;exitY=0.5;exitDx=0;exitDy=0;entryX=0;entryY=0.5;entryDx=0;entryDy=0;strokeWidth=2;" edge="1" parent="1" source="18" target="33">
          <mxGeometry relative="1" as="geometry">
            <mxPoint x="630" y="401" as="sourcePoint" />
            <mxPoint x="745" y="400" as="targetPoint" />
            <Array as="points" />
          </mxGeometry>
        </mxCell>
        <mxCell id="7wNMTAFy6irC7HOQBYHS-73" value="Snapshot: Nuevo Pedido" style="edgeLabel;html=1;align=center;verticalAlign=middle;resizable=0;points=[];" vertex="1" connectable="0" parent="7wNMTAFy6irC7HOQBYHS-72">
          <mxGeometry x="-0.3025" y="-1" relative="1" as="geometry">
            <mxPoint x="30" as="offset" />
          </mxGeometry>
        </mxCell>
        <mxCell id="7wNMTAFy6irC7HOQBYHS-77" value="" style="endArrow=open;strokeColor=#FF0000;endFill=1;rounded=0;entryX=1;entryY=0.5;entryDx=0;entryDy=0;exitX=0;exitY=0.25;exitDx=0;exitDy=0;" edge="1" parent="1" source="7wNMTAFy6irC7HOQBYHS-75" target="30">
          <mxGeometry relative="1" as="geometry">
            <mxPoint x="880" y="450" as="sourcePoint" />
            <mxPoint x="880" y="510" as="targetPoint" />
          </mxGeometry>
        </mxCell>
        <mxCell id="7wNMTAFy6irC7HOQBYHS-88" value="" style="endArrow=open;strokeColor=#FF0000;endFill=1;rounded=0;entryX=1;entryY=0.25;entryDx=0;entryDy=0;exitX=0;exitY=0.5;exitDx=0;exitDy=0;exitPerimeter=0;strokeWidth=2;" edge="1" parent="1" source="31" target="7wNMTAFy6irC7HOQBYHS-84">
          <mxGeometry relative="1" as="geometry">
            <mxPoint x="444.5" y="620" as="sourcePoint" />
            <mxPoint x="313.5" y="620" as="targetPoint" />
          </mxGeometry>
        </mxCell>
        <mxCell id="7wNMTAFy6irC7HOQBYHS-102" value="Snapshot: Update&lt;div&gt;Pedido&lt;/div&gt;" style="edgeLabel;html=1;align=center;verticalAlign=middle;resizable=0;points=[];" vertex="1" connectable="0" parent="7wNMTAFy6irC7HOQBYHS-88">
          <mxGeometry x="0.0119" y="3" relative="1" as="geometry">
            <mxPoint x="1" as="offset" />
          </mxGeometry>
        </mxCell>
        <mxCell id="7wNMTAFy6irC7HOQBYHS-92" value="" style="endArrow=open;strokeColor=#FF0000;endFill=1;rounded=0;exitX=1;exitY=0.5;exitDx=0;exitDy=0;entryX=0;entryY=0.5;entryDx=0;entryDy=0;" edge="1" parent="1" source="7wNMTAFy6irC7HOQBYHS-84" target="7wNMTAFy6irC7HOQBYHS-91">
          <mxGeometry relative="1" as="geometry">
            <mxPoint x="400" y="401" as="sourcePoint" />
            <mxPoint x="515" y="400" as="targetPoint" />
            <Array as="points" />
          </mxGeometry>
        </mxCell>
        <mxCell id="7wNMTAFy6irC7HOQBYHS-105" value="Diagrama de&amp;nbsp;&lt;span style=&quot;background-color: transparent; color: light-dark(rgb(0, 0, 0), rgb(255, 255, 255));&quot;&gt;Actividad&lt;/span&gt;&lt;div&gt;de un Carrito de Usuario&lt;/div&gt;&lt;div&gt;que se convierte en un&lt;/div&gt;&lt;div&gt;Pedido hasta que termina&lt;/div&gt;&lt;div&gt;por ser eliminado de FS&lt;/div&gt;&lt;div&gt;al llegar al estado de&lt;/div&gt;&lt;div&gt;&quot;Entregado&quot;&lt;/div&gt;" style="text;html=1;align=center;verticalAlign=middle;resizable=0;points=[];autosize=1;strokeColor=default;fillColor=none;dashed=1;" vertex="1" parent="1">
          <mxGeometry x="2.5" y="370" width="160" height="110" as="geometry" />
        </mxCell>
      </root>
    </mxGraphModel>
  </diagram>
</mxfile>
